<svg xmlns="http://www.w3.org/2000/svg" width="20.375" height="20.375" viewBox="0 0 20.375 20.375">
  <g transform="translate(-3.063 13.188)">
    <path d="M19.977,18.868,17.4,16.287l2.581-2.581A.783.783,0,1,0,18.87,12.6L16.289,15.18,13.707,12.6A.783.783,0,1,0,12.6,13.706l2.581,2.581L12.6,18.868a.757.757,0,0,0,0,1.107.777.777,0,0,0,1.107,0l2.581-2.581,2.581,2.581a.786.786,0,0,0,1.107,0A.778.778,0,0,0,19.977,18.868Z" transform="translate(-3.038 -19.287)" fill="#b2b3b5"/>
    <path d="M13.562,4.746A8.813,8.813,0,1,1,7.328,7.328a8.758,8.758,0,0,1,6.235-2.581m0-1.371A10.188,10.188,0,1,0,23.75,13.562,10.186,10.186,0,0,0,13.562,3.375Z" transform="translate(-0.312 -16.563)" fill="#b2b3b5"/>
  </g>
</svg>
