<svg id="Group_2368" data-name="Group 2368" xmlns="http://www.w3.org/2000/svg" xmlns:xlink="http://www.w3.org/1999/xlink" width="35.788" height="36.79" viewBox="0 0 35.788 36.79">
  <defs>
    <clipPath id="clip-path">
      <rect id="Rectangle_286" data-name="Rectangle 286" width="35.788" height="36.79" fill="#111"/>
    </clipPath>
  </defs>
  <g id="Group_2367" data-name="Group 2367" clip-path="url(#clip-path)">
    <path id="Path_126" data-name="Path 126" d="M26.346,36.791c-.361-.807-.761-1.6-1.069-2.426a1.089,1.089,0,0,0-1.217-.808c-7.571.022-15.142.006-22.712,0-1.4,0-1.449-.055-1.28-1.469q1.368-11.45,2.73-22.9c.076-.647.339-.915.992-.905,1.59.023,3.18.008,4.843.008a8.515,8.515,0,0,1,3.026-6.642A7.263,7.263,0,0,1,16.329,0c3.99.023,6.13,2.373,7.462,8.295,1.457,0,2.948.044,4.434-.017.827-.034,1.135.27,1.231,1.07.653,5.412,1.356,10.818,2,16.231a1.05,1.05,0,0,0,.868,1.081,10.169,10.169,0,0,1,1.39.471c.638.264.693.657.152,1.088-.765.609-1.546,1.2-2.386,1.849l3.565,2.958c.973.806.971.8.13,1.8-.553.653-1.1,1.311-1.652,1.966h-.552l-4.076-3.618L26.9,36.791ZM3.835,9.4,1.082,32.486H24.365c-.139-.348-.24-.626-.361-.895-1.054-2.343-2.134-4.676-3.153-7.035a9.073,9.073,0,0,1-.382-1.757,12.6,12.6,0,0,1,1.713.332C24.9,24.047,27.6,25,30.461,25.992L28.385,9.41h-4.6c-.1.808-.322,1.53.328,2.253.444.493.176,1.133-.341,1.527a1.139,1.139,0,0,1-1.59-.1,1.071,1.071,0,0,1-.115-1.637,2.228,2.228,0,0,0,.558-2.043H9.569c.362.757.617,1.4.968,1.99a1.237,1.237,0,0,1-.1,1.669,1.133,1.133,0,0,1-1.585.135,1.062,1.062,0,0,1-.341-1.6c.648-.763.306-1.451.138-2.208ZM22.671,8.25c-.279-2.84-1.083-5.309-3.776-6.592a5.926,5.926,0,0,0-6.563.787,6.924,6.924,0,0,0-2.584,5.8Zm9.934,19.6L21.764,24.081l4.958,10.956c.491-.973.872-1.737,1.26-2.5.463-.906.627-.944,1.417-.273,1.257,1.067,2.5,2.146,3.8,3.262l1.327-1.569c-1.368-1.134-2.624-2.207-3.918-3.232-.646-.512-.6-.893.037-1.35s1.243-.967,1.957-1.527" transform="translate(0 -0.001)" fill="#111"/>
  </g>
</svg>
