<svg width="27" height="38" viewBox="0 0 27 38" fill="none" xmlns="http://www.w3.org/2000/svg">
<path d="M0.593764 13.8445L0.593764 13.8443C0.597801 10.4225 1.95892 7.14191 4.37855 4.72228C6.79804 2.3028 10.0784 0.941693 13.5 0.9375C16.9217 0.941693 20.202 2.3028 22.6215 4.72228C25.0411 7.14191 26.4022 10.4225 26.4063 13.8443V13.8445C26.4103 16.6383 25.4977 19.3562 23.8085 21.5815L23.7585 21.6473L23.7576 21.6501L23.7503 21.6596L23.6189 21.8311C23.5698 21.8949 23.5194 21.9604 23.4782 22.0136L23.4252 22.0816L23.4076 22.1038L23.4022 22.1106C23.4011 22.112 23.4005 22.1127 23.4004 22.1129L23.4003 22.1129L23.3889 22.1267L23.3785 22.1413L13.0201 36.6129L3.63921 22.1661L3.62091 22.1379L3.59922 22.1127C3.59923 22.1127 3.59751 22.1106 3.59348 22.1057L3.57618 22.0841C3.5619 22.066 3.54382 22.043 3.52297 22.0161C3.48134 21.9626 3.43085 21.8969 3.38168 21.8328C3.33261 21.7687 3.28534 21.7068 3.2503 21.6608L3.20832 21.6056L3.19672 21.5904L3.1937 21.5864L3.19293 21.5854L3.19276 21.5852C3.19275 21.5852 3.19275 21.5852 3.19275 21.5852C1.50268 19.3589 0.589667 16.6396 0.593764 13.8445ZM18.875 13.8444V13.8438C18.875 12.7807 18.5598 11.7415 17.9692 10.8576C17.3785 9.97365 16.5391 9.28472 15.5569 8.8779C14.5748 8.47108 13.494 8.36463 12.4514 8.57203C11.4088 8.77942 10.451 9.29134 9.69931 10.0431C8.94761 10.7948 8.43569 11.7525 8.22829 12.7951C8.0209 13.8378 8.12734 14.9185 8.53416 15.9007C8.94098 16.8828 9.62991 17.7223 10.5138 18.3129C11.3977 18.9035 12.4369 19.2188 13.5 19.2188H13.5006C14.9255 19.217 16.2914 18.6502 17.2989 17.6427C18.3064 16.6352 18.8732 15.2692 18.875 13.8444Z" fill="#EA4335" stroke="#B41412"/>
<circle cx="13.5" cy="13.5" r="5.5" fill="#B41412"/>
</svg>