<svg xmlns="http://www.w3.org/2000/svg" width="22" height="22" viewBox="0 0 22 22">
  <path id="facebook" d="M20,0H2A2,2,0,0,0,0,2V20a2,2,0,0,0,2,2H9.5a.5.5,0,0,0,.5-.5v-7a.5.5,0,0,0-.5-.5H8.521a.5.5,0,0,1-.5-.5v-3a.5.5,0,0,1,.5-.5H9.5a.5.5,0,0,0,.5-.5v-1A4.505,4.505,0,0,1,14.5,4h3a.5.5,0,0,1,.5.5v3a.5.5,0,0,1-.5.5h-3a.5.5,0,0,0-.5.5v1a.5.5,0,0,0,.5.5h3a.5.5,0,0,1,.493.583l-.5,3A.5.5,0,0,1,17,14H14.5a.5.5,0,0,0-.5.5v7a.5.5,0,0,0,.5.5H20a2,2,0,0,0,2-2V2a2,2,0,0,0-2-2" fill="#383838" fill-rule="evenodd"/>
</svg>
