<svg id="insta" xmlns="http://www.w3.org/2000/svg" width="22" height="22" viewBox="0 0 22 22">
  <path id="Path_1" data-name="Path 1" d="M5.978,2A3.983,3.983,0,0,0,2,5.978V16.022A3.983,3.983,0,0,0,5.978,20H16.022A3.983,3.983,0,0,0,20,16.022V5.978A3.983,3.983,0,0,0,16.022,2ZM16.022,22H5.978A5.985,5.985,0,0,1,0,16.022V5.978A5.985,5.985,0,0,1,5.978,0H16.022A5.985,5.985,0,0,1,22,5.978V16.022A5.985,5.985,0,0,1,16.022,22Z" fill="#383838" fill-rule="evenodd"/>
  <path id="Path_2" data-name="Path 2" d="M11,7a4,4,0,1,0,4,4,4,4,0,0,0-4-4m0,10a6,6,0,1,1,6-6,6.006,6.006,0,0,1-6,6M17,5a1,1,0,1,1,1-1,1,1,0,0,1-1,1" fill="#383838" fill-rule="evenodd"/>
</svg>
