<svg width="21" height="20" viewBox="0 0 21 20" fill="none" xmlns="http://www.w3.org/2000/svg">
<path d="M7.22934 9.98815C7.22934 8.20131 8.67759 6.75242 10.4646 6.75242C12.2516 6.75242 13.7006 8.20131 13.7006 9.98815C13.7006 11.775 12.2516 13.2239 10.4646 13.2239C8.67759 13.2239 7.22934 11.775 7.22934 9.98815ZM5.48 9.98815C5.48 12.7409 7.7116 14.9723 10.4646 14.9723C13.2176 14.9723 15.4492 12.7409 15.4492 9.98815C15.4492 7.23541 13.2176 5.00402 10.4646 5.00402C7.7116 5.00402 5.48 7.23541 5.48 9.98815ZM14.4816 4.8064C14.4816 5.03677 14.5498 5.26199 14.6777 5.45359C14.8056 5.64519 14.9875 5.79455 15.2003 5.88279C15.4131 5.97104 15.6473 5.9942 15.8733 5.94935C16.0993 5.90449 16.3069 5.79364 16.4699 5.63081C16.6329 5.46798 16.7439 5.26048 16.7889 5.03456C16.834 4.80863 16.811 4.57443 16.7229 4.36156C16.6348 4.14869 16.4856 3.96672 16.2941 3.83866C16.1026 3.71059 15.8774 3.64219 15.647 3.6421H15.6465C15.3377 3.64224 15.0416 3.76494 14.8232 3.98324C14.6047 4.20155 14.4819 4.49761 14.4816 4.8064ZM6.54283 17.8889C5.59641 17.8458 5.082 17.6882 4.74014 17.555C4.28693 17.3786 3.96356 17.1685 3.62357 16.829C3.28358 16.4895 3.07312 16.1665 2.89746 15.7133C2.7642 15.3716 2.60655 14.8571 2.56353 13.9108C2.51647 12.8876 2.50707 12.5803 2.50707 9.98823C2.50707 7.39615 2.51724 7.08966 2.56353 6.06567C2.60663 5.11934 2.76544 4.60583 2.89746 4.26315C3.0739 3.80998 3.28404 3.48664 3.62357 3.14668C3.96309 2.80673 4.28615 2.59629 4.74014 2.42064C5.08184 2.28739 5.59641 2.12976 6.54283 2.08674C7.56606 2.03969 7.87344 2.03029 10.4646 2.03029C13.0558 2.03029 13.3634 2.04046 14.3875 2.08674C15.334 2.12984 15.8475 2.28864 16.1902 2.42064C16.6434 2.59629 16.9668 2.80719 17.3068 3.14668C17.6468 3.48617 17.8565 3.80998 18.0329 4.26315C18.1662 4.60482 18.3238 5.11934 18.3668 6.06567C18.4139 7.08966 18.4233 7.39615 18.4233 9.98823C18.4233 12.5803 18.4139 12.8868 18.3668 13.9108C18.3237 14.8571 18.1653 15.3715 18.0329 15.7133C17.8565 16.1665 17.6463 16.4898 17.3068 16.829C16.9673 17.1682 16.6434 17.3786 16.1902 17.555C15.8485 17.6883 15.334 17.8459 14.3875 17.8889C13.3643 17.936 13.0569 17.9454 10.4646 17.9454C7.87227 17.9454 7.56575 17.936 6.54283 17.8889ZM6.46246 0.34052C5.42905 0.387577 4.7229 0.551421 4.10622 0.791364C3.46755 1.03915 2.92689 1.37157 2.38662 1.91094C1.84635 2.45031 1.51475 2.99177 1.26694 3.63037C1.02697 4.24739 0.863112 4.95308 0.816051 5.98639C0.768213 7.02133 0.757263 7.3522 0.757263 9.98815C0.757263 12.6241 0.768213 12.955 0.816051 13.9899C0.863112 15.0233 1.02697 15.7289 1.26694 16.3459C1.51475 16.9841 1.84643 17.5262 2.38662 18.0654C2.92681 18.6045 3.46755 18.9365 4.10622 19.1849C4.72407 19.4249 5.42905 19.5887 6.46246 19.6358C7.49804 19.6828 7.8284 19.6946 10.4646 19.6946C13.1008 19.6946 13.4317 19.6836 14.4667 19.6358C15.5002 19.5887 16.2059 19.4249 16.823 19.1849C17.4613 18.9365 18.0023 18.6047 18.5426 18.0654C19.0828 17.526 19.4138 16.9841 19.6623 16.3459C19.9022 15.7289 20.0669 15.0232 20.1131 13.9899C20.1602 12.9542 20.1712 12.6241 20.1712 9.98815C20.1712 7.3522 20.1602 7.02133 20.1131 5.98639C20.0661 4.95301 19.9022 4.247 19.6623 3.63037C19.4138 2.99216 19.082 2.45116 18.5426 1.91094C18.0032 1.37072 17.4613 1.03915 16.8238 0.791364C16.2059 0.551421 15.5001 0.3868 14.4675 0.34052C13.4325 0.293464 13.1016 0.281738 10.4654 0.281738C7.82917 0.281738 7.49804 0.292687 6.46246 0.34052Z" fill="white"/>
</svg>
