<svg xmlns="http://www.w3.org/2000/svg" width="20.955" height="32.679" viewBox="0 0 20.955 32.679">
  <g id="logo-m-icon" transform="translate(-240 -617)">
    <path id="Path_89" data-name="Path 89" d="M29.756,16.037h0v-.083a9.542,9.542,0,0,0,.5-3.077,10.477,10.477,0,1,0-20.955,0,9.542,9.542,0,0,0,.5,3.077c.416,2.162,9.23,19.125,9.978,19.125.665,0,6.9-12.223,9.147-17.213.249-.5.5-1.081.748-1.663C29.756,16.2,29.756,16.12,29.756,16.037Z" transform="translate(230.7 614.6)" fill="#eb0000"/>
    <circle id="Ellipse_18" data-name="Ellipse 18" cx="7.983" cy="7.983" r="7.983" transform="translate(242.74 619.162)" fill="#fff"/>
    <path id="Path_90" data-name="Path 90" d="M24.248,8.9l-3.409,7.317L17.513,8.9h-.748L15.6,16.883h.5L17.18,9.565l3.409,7.317h.5L24.5,9.565l1.164,7.317h.5L25,8.9Z" transform="translate(229.884 613.505)" fill="#eb0000"/>
  </g>
</svg>
