<svg xmlns="http://www.w3.org/2000/svg" width="20" height="20" viewBox="0 0 20 20">
  <path id="map" d="M584,4746a4,4,0,0,1,8,0c0,2.5-2.459,5.8-4,7.54C586.46,4751.8,584,4748.5,584,4746Zm3.293,9.71.707.71.707-.71c.216-.22,5.293-5.35,5.293-9.71a6,6,0,0,0-12,0C582,4750.36,587.077,4755.49,587.293,4755.71ZM588,4748a2,2,0,1,1,2-2A2,2,0,0,1,588,4748Zm0,12c-4.816,0-10-1.25-10-4,0-.95.648-2.28,3.734-3.2l.569,1.92c-1.9.56-2.3,1.18-2.3,1.28,0,.51,2.75,2,8,2s8-1.49,8-2c0-.1-.4-.72-2.289-1.28l.57-1.92c3.074.92,3.719,2.25,3.719,3.2C598,4758.75,592.816,4760,588,4760Z" transform="translate(-578 -4740)" fill="#02a6db" fill-rule="evenodd"/>
</svg>
