<svg xmlns="http://www.w3.org/2000/svg" width="20" height="20" viewBox="0 0 20 20">
  <g transform="translate(-3.375 -3.375)">
    <path d="M20.732,13.134l-.846-.87a.182.182,0,0,0-.135-.058h0a.175.175,0,0,0-.135.058l-5.865,5.909-2.135-2.135a.186.186,0,0,0-.269,0l-.856.856a.192.192,0,0,0,0,.274l2.692,2.692a.851.851,0,0,0,.563.274.892.892,0,0,0,.558-.264h0l6.428-6.462A.206.206,0,0,0,20.732,13.134Z" transform="translate(-2.232 -2.793)" fill="#21ad1e"/>
    <path d="M13.375,4.721a8.65,8.65,0,1,1-6.12,2.534,8.6,8.6,0,0,1,6.12-2.534m0-1.346a10,10,0,1,0,10,10,10,10,0,0,0-10-10Z" fill="#21ad1e"/>
  </g>
</svg>
