<svg xmlns="http://www.w3.org/2000/svg" width="22.5" height="22.5" viewBox="0 0 22.5 22.5">
  <path id="Icon_awesome-phone-alt" data-name="Icon awesome-phone-alt" d="M21.858,15.9,16.936,13.79a1.055,1.055,0,0,0-1.23.3l-2.18,2.663A16.289,16.289,0,0,1,5.739,8.97L8.4,6.79a1.052,1.052,0,0,0,.3-1.23L6.6.638A1.062,1.062,0,0,0,5.388.027L.817,1.082A1.055,1.055,0,0,0,0,2.11,20.389,20.389,0,0,0,20.391,22.5a1.055,1.055,0,0,0,1.028-.817l1.055-4.57A1.067,1.067,0,0,0,21.858,15.9Z" transform="translate(0 0)" fill="#eb0000"/>
</svg>
