<svg xmlns="http://www.w3.org/2000/svg" width="20" height="20" viewBox="0 0 20 20">
  <path id="phone" d="M680.26,4645.84a2.061,2.061,0,0,0-1.721-.84,2.483,2.483,0,0,0-1.448.46c-.227.15-.5.35-.809.59a11.556,11.556,0,0,0-1.3,1.26,3.037,3.037,0,0,0-.978,1.96c.106,2.83,2.075,6.08,5.845,9.86s7.009,5.76,9.8,5.87h.073a2.935,2.935,0,0,0,1.944-.99,13.481,13.481,0,0,0,1.249-1.3c.269-.33.468-.58.6-.77a2.675,2.675,0,0,0,.477-1.74,2.037,2.037,0,0,0-.843-1.47c-1.384-.98-2.617-1.81-3.713-2.47a2.092,2.092,0,0,0-1.081-.29,2.929,2.929,0,0,0-1.351.36c-.176.09-.529.29-1.054.59-.564-.46-1.233-1.08-2-1.85a26.49,26.49,0,0,1-1.868-2.05c.294-.54.487-.9.582-1.09a2.357,2.357,0,0,0,.074-2.39C681.773,4648.02,680.954,4646.8,680.26,4645.84Zm9.421,17.16c-2.124-.08-4.972-1.82-8.419-5.28s-5.181-6.32-5.262-8.49c0,.01.014-.01.043-.05a4.706,4.706,0,0,1,.415-.52,10.105,10.105,0,0,1,1.045-1.03c.288-.22.527-.39.716-.52l.034-.02a.458.458,0,0,1,.286-.09c.093,0,.1,0,.109.02.658.91,1.455,2.1,2.375,3.56.019.03.01.15-.14.43-.123.24-.412.78-.871,1.61l-.3.55.362.51a22.749,22.749,0,0,0,2.456,2.8,24.621,24.621,0,0,0,2.744,2.45l.53.39.568-.33c.816-.48,1.347-.78,1.556-.88a.959.959,0,0,1,.426-.14c.04,0,.054,0,.061.01,1.031.63,2.228,1.42,3.565,2.37.016.01.017.01.022.06a.7.7,0,0,1-.152.42c-.068.1-.244.32-.488.62a11.2,11.2,0,0,1-1.063,1.1,3.018,3.018,0,0,1-.578.45Z" transform="translate(-674 -4645)" fill="#02a6db" fill-rule="evenodd"/>
</svg>
