<svg xmlns="http://www.w3.org/2000/svg" width="20" height="24" viewBox="0 0 20 24">
  <path id="printest" d="M10.527,0C2.756,0,0,4.581,0,8.5a8.112,8.112,0,0,0,3.605,6.347.5.5,0,0,0,.7-.3L5.133,11.8a.5.5,0,0,0-.117-.491A3.28,3.28,0,0,1,4,8.993C4,5.555,6.408,3.5,10.442,3.5,13.558,3.5,16,5.694,16,8.493c0,2.576-2.072,5.513-3.889,5.513A1.989,1.989,0,0,1,9.97,12.015a7.033,7.033,0,0,0,1.585-4.047,1.74,1.74,0,0,0-.474-1.359A3.073,3.073,0,0,0,8.944,6,2.916,2.916,0,0,0,5.805,9,5.7,5.7,0,0,0,6.335,11L3.874,21.162a3.388,3.388,0,0,0,.739,2.655.5.5,0,0,0,.664.1,5.094,5.094,0,0,0,1.71-1.755c.445-.921,1.708-4.189,2.421-6.055l.09-.092a5.341,5.341,0,0,0,3.14.994c5.434,0,7.362-4.582,7.362-8.5C20,5.345,18,0,10.527,0" fill="#383838" fill-rule="evenodd"/>
</svg>
