<svg xmlns="http://www.w3.org/2000/svg" width="24.001" height="20" viewBox="0 0 24.001 20">
  <path id="twitter" d="M23.866,2.43a.5.5,0,0,0-.6-.1,4.84,4.84,0,0,1-.747.269A4.873,4.873,0,0,0,23.365.979a.5.5,0,0,0-.773-.534,10.626,10.626,0,0,1-2.53,1.006A5.054,5.054,0,0,0,16.5,0a5.714,5.714,0,0,0-3.018.929C11.6,2.049,11.268,4.47,11.408,5.955A12.972,12.972,0,0,1,2.392,1.19.53.53,0,0,0,1.964,1a.5.5,0,0,0-.4.247,5.352,5.352,0,0,0,.218,5.7q-.241-.165-.466-.351a.5.5,0,0,0-.82.385,5.732,5.732,0,0,0,2.544,4.659q-.2-.053-.394-.115a.5.5,0,0,0-.606.681,6.475,6.475,0,0,0,4.19,3.619A9.225,9.225,0,0,1,.558,17a.5.5,0,0,0-.306.931A15.2,15.2,0,0,0,7.982,20H8a13.346,13.346,0,0,0,10-4.632,13.637,13.637,0,0,0,3.646-9.923,9.836,9.836,0,0,0,2.279-2.41.5.5,0,0,0-.058-.605Z" transform="translate(0.001)" fill="#383838" fill-rule="evenodd"/>
</svg>
