<svg xmlns="http://www.w3.org/2000/svg" width="24" height="18" viewBox="0 0 24 18">
  <path id="youtube" d="M16.771,9.42l-7,4.5A.5.5,0,0,1,9,13.5v-9a.5.5,0,0,1,.771-.42l7,4.5a.5.5,0,0,1,0,.84M20.935.675l-1.9-.238a56.917,56.917,0,0,0-14.071,0l-1.9.237A3.506,3.506,0,0,0,0,4.148v9.7a3.5,3.5,0,0,0,3.066,3.473l1.9.238A57.272,57.272,0,0,0,12,18a57.081,57.081,0,0,0,7.036-.439l1.9-.238A3.505,3.505,0,0,0,24,13.852v-9.7A3.506,3.506,0,0,0,20.935.674" transform="translate(0 0)" fill="#383838" fill-rule="evenodd"/>
</svg>
